<svg version="1" xmlns="http://www.w3.org/2000/svg" width="346.667" height="346.667" viewBox="0 0 260 260"><path d="M83 129.5V254h25.9c16.3 0 26.2-.4 26.6-1 .3-.5 1.9-1 3.4-1s3.1-.4 3.6-.9c.6-.5 3-1.4 5.5-1.9 9.3-2.2 13.6-3.5 16.2-4.8 1.4-.8 3.7-1.4 5-1.4 1.3 0 3.2-.6 4.3-1.4 1.1-.7 3.7-1.6 5.9-2 2.1-.4 4.6-1.1 5.5-1.6.9-.4 3.5-1.3 5.9-1.9 2.3-.7 4.2-1.6 4.2-2.1 0-.6 1.2-1 2.8-1 4.5 0 7.2-1.1 7.2-2.9 0-2.6-16.1-4.3-45-4.8-13.5-.2-25.1-.5-25.7-.8-1-.3-1.3-4.7-1.3-17.5v-17h29.6c17.7 0 29.3-.4 29-.9-.4-.5.8-1.3 2.6-1.6 1.8-.4 3.6-1.3 4.1-1.9.5-.8.9-.7 1.6.3 1.1 1.8 27.4 1.2 29.3-.6.6-.7 2.7-1.3 4.5-1.3 3.3 0 3.3 0 3.3-4.9s-.1-5-3.2-5.3c-1.8-.2-7.5-.1-12.6.2-5.2.3-9.6.3-9.8.1-.2-.2-.4-21.8-.4-47.9 0-46.5 0-47.4-2-47.9-1.1-.3-2-1.1-2-1.8 0-.8-1.3-1.6-3-2-1.6-.4-3-1.1-3-1.6s-.9-.9-2-.9-2.3-.7-2.6-1.5c-1.2-2.9-12.4-4.7-14.9-2.4-.5.5-6.8.9-14 .9-8.9 0-13.5.4-14.3 1.2-.9.9-1.2.9-1.2 0 0-.7-.5-1.2-1.1-1.2-.5 0-.7.4-.4 1 .3.5.1 1-.4 1-.6 0-1.1-1.1-1.1-2.3 0-1.3-.9-3.2-2-4.2s-2-2.6-2-3.6-.4-2.1-1-2.4c-.5-.3-1-1.7-1-3.1 0-1.4-.7-2.7-1.5-3-.8-.3-1.7-1.5-2.1-2.7-.4-1.2-1.3-2.7-2-3.5-.8-.7-1.4-2.2-1.4-3.2s-.7-2-1.5-2.4c-.8-.3-1.5-1.6-1.5-3 0-1.3-.7-2.6-1.5-3-.8-.3-1.5-1.7-1.5-3.1 0-1.4-.7-2.8-1.5-3.1-.8-.4-1.5-1.2-1.5-2s-.9-1.4-2-1.4-2.3-.7-2.6-1.5c-.4-.8-1.5-1.5-2.5-1.5-1.1 0-2.2-.7-2.5-1.5-.4-.8-1.7-1.5-3-1.5-1.4 0-2.4-.6-2.4-1.4 0-.8-1.1-1.7-2.5-2-1.4-.4-2.5-1.1-2.5-1.6 0-.6-.9-1-2-1-1 0-2.4-.9-3-2-.6-1.1-1.9-2-2.9-2-1.1 0-2.1-.7-2.5-1.5-.3-.8-1.2-1.2-2.1-.9-.8.3-1.5.1-1.5-.5 0-.7-2-1.1-5-1.1h-5v124.5zm16.7 121.1c-.3.3-1.2.4-1.9.1-.8-.3-.5-.6.6-.6 1.1-.1 1.7.2 1.3.5zM49.6 85.5c-.4 1-1.9 1.5-4.9 1.5-2.4 0-5.2.7-6.3 1.5-1.1.9-4.2 1.4-7.6 1.5-4.5 0-5.8.3-5.8 1.5 0 .8-.4 1.5-1 1.5s-1 8.2-1 22.5c0 15.3.3 22.5 1.1 22.5.6 0 1.7.7 2.5 1.5 1.2 1.1 4 1.5 11.5 1.5 8.1 0 9.9.3 9.9 1.5 0 2.1 8.8 2 11.8-.1 2.2-1.5 2.2-1.7 2.2-28.9 0-26.1-.1-27.5-1.9-28.5-3-1.6-9.8-1.3-10.5.5zM23 201.5V244h3c1.7 0 3 .4 3 1 0 .5 1.3 1 3 1 1.9 0 3.3.7 4 2 .8 1.4 2.1 2 4.5 2 1.9 0 3.5.4 3.5 1 0 .5 1.1 1 2.5 1s2.5.4 2.5 1 2.8 1 6.5 1H62v-86.5l-3.4-2.8c-3.3-2.5-4.1-2.7-13.1-2.7-7.6 0-9.7-.3-10.1-1.5-.5-1.1-2.2-1.5-6.5-1.5H23v42.5z"/></svg>